<?xml version="1.0" encoding="utf-8"?>
<!-- Generator: Adobe Illustrator 27.1.1, SVG Export Plug-In . SVG Version: 6.00 Build 0)  -->
<svg version="1.1" id="Layer_1" xmlns="http://www.w3.org/2000/svg" xmlns:xlink="http://www.w3.org/1999/xlink" x="0px" y="0px"
	 viewBox="0 0 165 46" style="enable-background:new 0 0 165 46;" xml:space="preserve">
<style type="text/css">
	.st0{fill:#3652A3;}
	.st1{fill:#C6363C;}
	.st2{fill:#3751A2;}
	.st3{fill:#FFFFFF;}
	.st4{font-family:'GTWalsheimPro-Medium';}
	.st5{font-size:14px;}
	.st6{font-family:'GTWalsheimPro-CondensedLight';}
	.st7{font-size:11.9898px;}
</style>
<g>
	<g>
		<path class="st0" d="M23.69,31.68c0,0,0.13,2.81,2.98,2.05c0,0-0.76-3.78-2.85-2.22c0,0,1.89,0.28,2.17,1.83
			C25.99,33.34,25.52,32.07,23.69,31.68z"/>
		<path class="st0" d="M29.78,25.7c0,0,1.89,0.28,2.17,1.83c0,0-0.46-1.27-2.3-1.66c0,0,0.13,2.81,2.98,2.05
			C32.63,27.92,31.87,24.13,29.78,25.7z"/>
		<path class="st0" d="M24.45,7.2c0,0-3.81,0.59-2.35,2.75c0,0,0.37-1.88,1.92-2.08c0,0-1.28,0.4-1.76,2.22
			C22.27,10.09,25.08,10.09,24.45,7.2z"/>
		<path class="st1" d="M17.69,6.29c0,0-1.34-1.36-0.63-2.76c0,0-0.39,1.29,0.84,2.71c0,0,1.59-2.32-1.15-3.43
			C16.75,2.81,15.08,6.28,17.69,6.29z"/>
		<path class="st1" d="M15.45,6.48c0,0-1.83,0.57-2.74-0.71c0,0,0.97,0.94,2.79,0.5c0,0-1.33-2.48-3.58-0.56
			C11.92,5.71,14.24,8.79,15.45,6.48z"/>
		<path class="st1" d="M16.6,7.87c0,0-2.35-1.55-3.41,1.21c0,0,3.51,1.61,3.47-1c0,0-1.34,1.37-2.75,0.68
			C13.91,8.75,15.21,9.12,16.6,7.87z"/>
		<path class="st1" d="M14.65,13.03c0,0-1.78,0.71-2.79-0.49c0,0,1.04,0.86,2.82,0.28c0,0-1.52-2.36-3.61-0.28
			C11.07,12.53,13.62,15.43,14.65,13.03z"/>
		<path class="st1" d="M15.67,15.86c0,0-1.08-2.6-3.5-0.91c0,0,2,3.3,3.44,1.12c0,0-1.88,0.38-2.66-0.98
			C12.94,15.09,13.81,16.12,15.67,15.86z"/>
		<path class="st1" d="M11.36,22.98c0,0,1.04-2.61-1.88-3.09c0,0-0.86,3.76,1.69,3.2c0,0-1.61-1.03-1.23-2.56
			C9.95,20.52,9.85,21.87,11.36,22.98z"/>
		<path class="st1" d="M10.25,28.21c0,0-1.24-2.52-3.55-0.69c0,0,2.21,3.16,3.5,0.9c0,0-1.85,0.5-2.72-0.81
			C7.48,27.61,8.41,28.59,10.25,28.21z"/>
		<path class="st1" d="M10.44,31.7c0,0-2.54,1.2-0.74,3.54c0,0,3.2-2.16,0.95-3.49c0,0,0.47,1.86-0.85,2.7
			C9.8,34.46,10.79,33.54,10.44,31.7z"/>
		<path class="st1" d="M8.74,25.48c0,0-1.24-2.52-3.55-0.69c0,0,2.21,3.16,3.5,0.9c0,0-1.85,0.5-2.72-0.81
			C5.97,24.88,6.9,25.86,8.74,25.48z"/>
		<path class="st1" d="M7.51,23c0,0-1.85,0.5-2.72-0.81c0,0,0.93,0.98,2.77,0.6c0,0-1.24-2.52-3.55-0.69
			C4.01,22.1,6.22,25.27,7.51,23z"/>
		<path class="st0" d="M21.9,13.73c0,0,2.81,0,2.18-2.89c0,0-3.81,0.59-2.35,2.75c0,0,0.37-1.88,1.92-2.08
			C23.66,11.51,22.37,11.91,21.9,13.73z"/>
		<path class="st2" d="M27.56,23.24c0,0,2.81,0.04,2.23-2.85c0,0-3.82,0.53-2.39,2.71c0,0,0.39-1.87,1.95-2.05
			C29.35,21.04,28.06,21.43,27.56,23.24z"/>
		<path class="st2" d="M23.33,22.34c0,0,2.81,0.04,2.23-2.85c0,0-3.82,0.53-2.39,2.71c0,0,0.39-1.87,1.95-2.05
			C25.12,20.15,23.83,20.53,23.33,22.34z"/>
		<path class="st2" d="M30.57,17.42c0,0,1.15-1.53,2.64-1.02c0,0-1.33-0.2-2.56,1.22c0,0,2.52,1.24,3.23-1.63
			C33.89,15.99,30.21,14.84,30.57,17.42z"/>
		<path class="st2" d="M29.09,17.81c0,0,1.58-2.33-1.17-3.43c0,0-1.65,3.49,0.96,3.48c0,0-1.35-1.36-0.65-2.76
			C28.23,15.11,27.85,16.4,29.09,17.81z"/>
		<path class="st2" d="M22.52,17.03c0,0,2.73-0.67,1.43-3.32c0,0-3.56,1.48-1.62,3.23c0,0-0.09-1.91,1.37-2.48
			C23.69,14.46,22.54,15.16,22.52,17.03z"/>
		<path class="st2" d="M25.91,14.61c0,0-1.19-1.5-0.33-2.81c0,0-0.53,1.24,0.54,2.78c0,0,1.83-2.13-0.77-3.54
			C25.35,11.04,23.32,14.32,25.91,14.61z"/>
		<path class="st0" d="M26.67,30.64c0,0,0.13,2.81,2.98,2.05c0,0-0.76-3.78-2.85-2.22c0,0,1.89,0.28,2.17,1.83
			C28.97,32.3,28.51,31.03,26.67,30.64z"/>
		<path class="st0" d="M25.48,29.37c0,0,2.67-0.89,1.16-3.43c0,0-3.43,1.77-1.36,3.35c0,0-0.25-1.9,1.16-2.58
			C26.45,26.7,25.36,27.49,25.48,29.37z"/>
		<path class="st0" d="M32.48,30.48c0,0-1.96-3.32-3.42-1.16c0,0,1.88-0.36,2.64,1.01c0,0-0.85-1.04-2.71-0.81
			C28.99,29.52,30.03,32.13,32.48,30.48z"/>
		<path class="st0" d="M28.28,28.58c0,0,1.88-0.92,0.51-2.65c0,0-2.36,1.65-0.67,2.61c0,0-0.37-1.38,0.6-2.02
			C28.72,26.52,28,27.21,28.28,28.58z"/>
		<path class="st0" d="M32.99,26.03c0,0,0.01,2.09,2.16,1.62c0,0-0.45-2.84-2.05-1.74c0,0,1.4,0.27,1.56,1.43
			C34.65,27.33,34.35,26.37,32.99,26.03z"/>
		<path class="st0" d="M32.12,21.7c0,0,1.22-0.74,2.11,0.01c0,0-0.87-0.5-2.1,0.15c0,0,1.41,1.55,2.68-0.25
			C34.81,21.61,32.57,19.81,32.12,21.7z"/>
		<path class="st0" d="M33.15,24.46c0,0,0.43-1.36,1.6-1.38c0,0-0.98,0.19-1.49,1.5c0,0,2.08,0.24,1.86-1.95
			C35.11,22.63,32.24,22.74,33.15,24.46z"/>
		<path class="st2" d="M31.34,20.83c0,0,1.56-1.4-0.23-2.69c0,0-1.82,2.22,0.06,2.69c0,0-0.73-1.22,0.03-2.11
			C31.21,18.72,30.69,19.59,31.34,20.83z"/>
		<path class="st2" d="M26.92,19.98c0,0,1.56-1.4-0.22-2.69c0,0-1.82,2.22,0.06,2.69c0,0-0.73-1.22,0.03-2.11
			C26.79,17.88,26.28,18.74,26.92,19.98z"/>
		<path class="st2" d="M33.33,14.17c0,0-1-0.06-1.82,1.07c0,0,1.95,0.75,2.29-1.42c0,0-2.81-0.62-2.37,1.28
			C31.44,15.1,32.19,13.9,33.33,14.17z"/>
		<path class="st2" d="M30.7,14.64c0,0,0.43-2.05-1.77-2.03c0,0-0.16,2.87,1.64,2.13c0,0-1.31-0.55-1.22-1.72
			C29.35,13.02,29.45,14.02,30.7,14.64z"/>
		<path class="st1" d="M13.35,10.98c0,0-1.42-0.06-1.75-1.18c0,0,0.44,0.9,1.83,1.05c0,0-0.31-2.07-2.37-1.29
			C11.07,9.56,11.93,12.3,13.35,10.98z"/>
		<path class="st2" d="M27.49,11.8c0,0-0.98-1.03-0.43-2.07c0,0-0.31,0.95,0.59,2.03c0,0,1.22-1.7-0.81-2.57
			C26.84,9.19,25.55,11.75,27.49,11.8z"/>
		<path class="st2" d="M30.47,10.75c0,0-1,0.09-1.64,1.33c0,0,2.04,0.45,2.05-1.75c0,0-2.87-0.19-2.15,1.62
			C28.74,11.95,29.3,10.64,30.47,10.75z"/>
		<path class="st0" d="M22.39,6.82c0,0,0.57-1.31,1.73-1.2c0,0-1,0.09-1.64,1.33c0,0,2.04,0.45,2.05-1.75
			C24.54,5.21,21.68,5.02,22.39,6.82z"/>
		<path class="st1" d="M17.83,9.49c0,0-1.88-0.93-2.41,1.21c0,0,2.74,0.86,2.47-1.06c0,0-0.86,1.14-1.97,0.76
			C15.92,10.39,16.92,10.54,17.83,9.49z"/>
		<path class="st1" d="M20.02,10.44c0,0-1.88-0.93-2.41,1.21c0,0,2.74,0.86,2.47-1.06c0,0-0.86,1.13-1.97,0.76
			C18.11,11.35,19.1,11.5,20.02,10.44z"/>
		<path class="st1" d="M16.88,14.52c0,0,2.09-0.11,1.51-2.23c0,0-2.81,0.59-1.64,2.14c0,0,0.2-1.41,1.35-1.63
			C18.1,12.8,17.16,13.15,16.88,14.52z"/>
		<path class="st1" d="M18.55,21.26c0,0,0.2-1.41,1.35-1.63c0,0-0.94,0.35-1.22,1.72c0,0,2.09-0.11,1.51-2.23
			C20.19,19.13,17.38,19.72,18.55,21.26z"/>
		<path class="st1" d="M11.6,19.52c0,0-1.42-0.09-1.72-1.23c0,0,0.42,0.91,1.81,1.09c0,0-0.26-2.08-2.34-1.34
			C9.35,18.04,10.14,20.81,11.6,19.52z"/>
		<path class="st1" d="M18.68,23.74c0,0,2.09-0.11,1.51-2.23c0,0-2.81,0.59-1.64,2.14c0,0,0.2-1.41,1.35-1.63
			C19.9,22.02,18.96,22.37,18.68,23.74z"/>
		<path class="st1" d="M18.91,25.98c0,0,2.09-0.11,1.51-2.23c0,0-2.81,0.59-1.64,2.14c0,0,0.2-1.41,1.35-1.62
			C20.12,24.25,19.18,24.61,18.91,25.98z"/>
		<path class="st1" d="M16.1,18.65c0,0-0.28-2.07-2.35-1.33c0,0,0.81,2.76,2.26,1.46c0,0-1.42-0.08-1.73-1.21
			C14.29,17.57,14.71,18.48,16.1,18.65z"/>
		<path class="st1" d="M14.21,22c0,0,2.09,0.06,1.68-2.1c0,0-2.85,0.36-1.8,2c0,0,0.31-1.39,1.47-1.51
			C15.56,20.38,14.6,20.66,14.21,22z"/>
		<path class="st1" d="M12.03,25.66c0,0,0.25-2.08-1.94-1.87c0,0,0.09,2.87,1.82,1.98c0,0-1.36-0.44-1.37-1.61
			C10.55,24.16,10.73,25.15,12.03,25.66z"/>
		<path class="st1" d="M6.89,30.36c0,0-1.93-0.8-2.32,1.37c0,0,2.79,0.68,2.4-1.22c0,0-0.79,1.19-1.92,0.89
			C5.05,31.38,6.05,31.47,6.89,30.36z"/>
		<path class="st1" d="M7.01,28.93c0,0-0.03-2.09-2.17-1.59c0,0,0.48,2.83,2.07,1.72c0,0-1.4-0.25-1.57-1.41
			C5.34,27.65,5.66,28.6,7.01,28.93z"/>
		<path class="st1" d="M12.02,29.38c0,0-1.45-1.51-2.68,0.32c0,0,2.29,1.74,2.69-0.16c0,0-1.2,0.77-2.11,0.04
			C9.92,29.58,10.81,30.06,12.02,29.38z"/>
		<path class="st1" d="M8.27,31.02c0,0-1.94,0.79-0.69,2.61c0,0,2.46-1.48,0.84-2.56c0,0,0.28,1.4-0.74,1.98
			C7.68,33.05,8.46,32.41,8.27,31.02z"/>
		<path class="st1" d="M6.84,20.9c0,0-1.36-0.44-1.37-1.61c0,0,0.18,0.99,1.48,1.5c0,0,0.25-2.08-1.94-1.87
			C5.02,18.92,5.11,21.79,6.84,20.9z"/>
		<path class="st1" d="M7.6,20.6c0,0-0.14-1.42,0.93-1.89c0,0-0.83,0.56-0.79,1.96c0,0,2.01-0.59,0.95-2.52
			C8.69,18.14,6.09,19.37,7.6,20.6z"/>
		<path class="st1" d="M15.92,22.19c0,0-2.85,0.36-1.8,2c0,0,0.31-1.39,1.47-1.51c0,0-0.97,0.28-1.35,1.62
			C14.24,24.29,16.33,24.35,15.92,22.19z"/>
		<path class="st1" d="M14.21,26.37c0,0,2.09,0.06,1.68-2.1c0,0-2.85,0.36-1.8,2c0,0,0.31-1.39,1.47-1.51
			C15.56,24.75,14.6,25.03,14.21,26.37z"/>
		<path class="st1" d="M20.65,6.05c0,0-1.2-0.76-0.92-1.9c0,0-0.07,1,1.06,1.82c0,0,0.76-1.95-1.41-2.3
			C19.38,3.68,18.75,6.48,20.65,6.05z"/>
		<path class="st1" d="M20.29,8.6c0,0-1.2-0.76-0.92-1.9c0,0-0.07,1,1.06,1.82c0,0,0.77-1.95-1.41-2.3
			C19.02,6.22,18.39,9.03,20.29,8.6z"/>
		<path class="st0" d="M24.73,2.92c0,0-1,0.09-1.64,1.33c0,0,2.04,0.45,2.05-1.75c0,0-2.87-0.19-2.15,1.62
			C23,4.13,23.57,2.82,24.73,2.92z"/>
		<path class="st1" d="M21.63,3.83c0,0-1.3-0.58-1.18-1.75c0,0,0.07,1,1.31,1.65c0,0,0.48-2.04-1.72-2.07
			C20.04,1.67,19.82,4.53,21.63,3.83z"/>
	</g>
	<path class="st3" d="M28.78,40.29c-1.93-0.21,1.68-1.19,1.98-1.22c-2.23-0.04-2.65,1.27-4.88,0.9c-1.55-0.25-2.85-0.66-3.15-1.35
		c1.47-0.21,0.92,0.69,4.32,1.1c-3.15-0.94-2.05-0.94,0.25-1.03c4.74-0.07,8.98-0.34,11.53,1.31c-4.87-4.13-12.38-0.97-15.91-4.57
		c-1.42-2.38-0.48-4.74-0.48-4.74c4.45,0.71,7.14-2.93,7.14-2.93c-2.43,3.04-7.07,1.79-7.07,1.79c0.58-1.04,0.64-3.88,0.64-3.88
		c2.76-1.68,10.31-0.3,10.31-0.3c-1.94-1.19-4.62-1.12-4.62-1.12c2.09-1.12,3.28-3.65,3.28-3.65c-2.67,3.67-8.96,3.94-8.96,3.94
		c6.94-4.18,8.22-10.95,8.22-10.95c-2.39,7.08-8.79,10.01-8.79,10.01c0.54-1.95-0.53-5.08-0.53-5.08c5.61-1.79,6.35-7.4,6.35-7.4
		c-3.07,6.46-6.41,6.26-6.41,6.26C19.74,12.44,22.85,2.5,22.85,2.5c-1.87,2.92-1.37,4.34-1.94,6.35c-0.66,2.33-5.72-4.22-5.72-4.22
		c1.91,5.4,5.21,5.41,5.2,5.66c-0.22,9.23,2.76,16.58-0.65,20.32c-1.02,1.12-1.86-10.25-1.86-10.25c1.49-4.86,0.82-7.38,0.82-7.38
		c0,2.91-1.48,5.21-1.48,5.21c0.21-4.84-4.34-9.09-4.34-9.09c6.79,10.22,2.39,20.36,2.39,20.36c-1.49-2.33-2.17-4.93-2.17-4.93
		c0.88-1.63,0.61-4.84,0.61-4.84c0.15,1.72-0.75,3.88-0.75,3.88c-0.89-1.34-0.75-5.15-0.75-5.15c-1.86,4.18,2.24,11.34,2.24,11.34
		c-5.23-2.76-7.23-9.31-7.23-9.31c1.74,8.75,6.86,9.68,6.86,9.68c-3.13,1.19-8.05-0.67-8.05-0.67c5.89,3.65,10.96,0.9,10.96,0.9
		c1.55,2.82,0.48,4.82-0.02,5.61c-0.04,0.07-0.12,0.1-0.19,0.15c-3.71,2.94-11.38,1.73-15.61,3.79c2.69-0.9,5.16-0.57,8.81-0.78
		c5.23-0.22,7.1-1.97,5.75-0.16c-1.56,1.76-5.96,0.09-8.52,1.07c4.7-0.57,6.24,1.01,8.72-0.5c0.09,0.16-1.09,1.07-1.47,1.35
		c-2.05,1.56-6.67-0.62-8.77,0.29c1.98-0.29,5.25,0.78,6.08,0.9c-2.01,0.29-3.6,1.19-3.85,2.06c0.83-1.12,3.22-1.76,3.85-1.65
		c0.76,0.16,0.13,2.54,0.34,3.78c0.76-4.81-0.46-3.46,2.1-4.81c1.22-0.62-0.71,2.1-0.46,3.41c-0.05-0.46,1.13-3.69,2.14-4.26
		c0.51-0.29,1.72-2.15,1.72-2.15c-0.21,3-3.11,4.12-1.89,7.15c-0.3-1.76,0.25-2.71,0.79-3.4c1.06-1.44,1.4-3.41,2.99-4.03
		c0.04-0.05,0.04,0.53,0.04,1.15c0,1.52-1.35,1.81-2.02,3.78c1.38-2.09,2.1-2.18,2.14-2.06c1.22,4.23,0.94,0.46-2.17,4.53
		c1.31-1.37,2.41-2.43,3.73-1.32c0.63,0.53,1.78,0.53,2.23,0.49c-1.88,0.08-2.49-1.39-2.95-2.92c-0.21-0.53,0.25-0.28,0.76-0.12
		c0.63,0.21,1.41,0.66,1.84,1.52c-0.43-1.93-2.9-1.88-2.94-2.91c0-0.37,0.34-0.63,0.73-0.84c0.89-0.46-0.1-1.32,0.25-1.46
		c0.66,1.24,1.19,1.91,2.47,3.16c0.71,0.69,0.76,2.82,0.54,3.69c0.55-0.94,0.18-3.04,0.3-2.91c2.02,1.72,3.7,2.29,4.79,2.38
		c-1.08-0.41-2.35-0.99-3.4-1.72c1.35,0.16,3.82-0.82,4.92-0.41c-1.86-1.4-4.96,1.79-7.39-2.31c1.43,0.57,3.06,0.74,4.82,0.87
		c3.61,0.21,2.23,0.21,3.86,1.93c-0.62-1.31-1.13-1.81-0.58-1.88c1.89-0.25,1.89,0.99,4.53,0.53c-1.56-0.16-1.81-0.09-3.66-0.99
		c0.3-0.53,3.23-0.78,4.15-0.73C32.92,39.02,32.09,40.58,28.78,40.29z"/>
</g>
<g>
	<text transform="matrix(1.09 0 0 1 38.8368 25.6507)" class="st3 st4 st5">НАШИ КОРИЈЕНИ</text>
	<text transform="matrix(1 0 0 1 67.1263 37.6417)" class="st3 st6 st7">БАЊА ЛУКА</text>
</g>
</svg>
