<?xml version="1.0" encoding="utf-8"?>
<!-- Generator: Adobe Illustrator 27.1.1, SVG Export Plug-In . SVG Version: 6.00 Build 0)  -->
<svg version="1.1" id="Layer_1" xmlns="http://www.w3.org/2000/svg" xmlns:xlink="http://www.w3.org/1999/xlink" x="0px" y="0px"
	 viewBox="0 0 165 46" style="enable-background:new 0 0 165 46;" xml:space="preserve">
<style type="text/css">
	.st0{fill:#3652A3;}
	.st1{fill:#C6363C;}
	.st2{fill:#3751A2;}
	.st3{font-family:'GTWalsheimPro-Medium';}
	.st4{font-size:14px;}
	.st5{font-family:'GTWalsheimPro-CondensedLight';}
	.st6{font-size:11.9898px;}
</style>
<g>
	<g>
		<path class="st0" d="M23.01,30.39c0,0,0.12,2.72,2.89,1.99c0,0-0.74-3.67-2.76-2.15c0,0,1.84,0.27,2.1,1.77
			C25.23,32,24.79,30.77,23.01,30.39z"/>
		<path class="st0" d="M28.92,24.58c0,0,1.84,0.27,2.1,1.77c0,0-0.45-1.23-2.23-1.61c0,0,0.12,2.72,2.89,1.99
			C31.68,26.74,30.94,23.07,28.92,24.58z"/>
		<path class="st0" d="M23.75,6.65c0,0-3.7,0.57-2.28,2.66c0,0,0.35-1.82,1.86-2.02c0,0-1.25,0.39-1.7,2.15
			C21.63,9.45,24.35,9.45,23.75,6.65z"/>
		<path class="st1" d="M17.19,5.77c0,0-1.3-1.32-0.61-2.68c0,0-0.38,1.25,0.81,2.62c0,0,1.54-2.25-1.11-3.33
			C16.28,2.39,14.66,5.76,17.19,5.77z"/>
		<path class="st1" d="M15.02,5.95c0,0-1.77,0.55-2.66-0.69c0,0,0.94,0.91,2.7,0.48c0,0-1.29-2.4-3.47-0.54
			C11.59,5.2,13.84,8.19,15.02,5.95z"/>
		<path class="st1" d="M16.14,7.3c0,0-2.27-1.5-3.31,1.17c0,0,3.4,1.56,3.37-0.97c0,0-1.3,1.33-2.67,0.66
			C13.53,8.16,14.78,8.51,16.14,7.3z"/>
		<path class="st1" d="M14.24,12.3c0,0-1.73,0.69-2.71-0.48c0,0,1,0.84,2.73,0.27c0,0-1.47-2.29-3.5-0.27
			C10.77,11.82,13.25,14.63,14.24,12.3z"/>
		<path class="st1" d="M15.23,15.05c0,0-1.04-2.52-3.4-0.88c0,0,1.94,3.2,3.33,1.08c0,0-1.82,0.37-2.58-0.95
			C12.59,14.3,13.43,15.3,15.23,15.05z"/>
		<path class="st1" d="M11.06,21.95c0,0,1.01-2.53-1.82-3c0,0-0.84,3.65,1.63,3.1c0,0-1.56-1-1.19-2.48
			C9.68,19.57,9.59,20.87,11.06,21.95z"/>
		<path class="st1" d="M9.97,27.02c0,0-1.2-2.45-3.45-0.67c0,0,2.14,3.07,3.39,0.87c0,0-1.79,0.49-2.63-0.78
			C7.29,26.44,8.19,27.39,9.97,27.02z"/>
		<path class="st1" d="M10.15,30.41c0,0-2.46,1.16-0.72,3.44c0,0,3.1-2.1,0.92-3.38c0,0,0.46,1.8-0.82,2.62
			C9.53,33.08,10.49,32.2,10.15,30.41z"/>
		<path class="st1" d="M8.51,24.38c0,0-1.2-2.45-3.45-0.67c0,0,2.14,3.07,3.39,0.87c0,0-1.79,0.49-2.63-0.78
			C5.83,23.8,6.73,24.74,8.51,24.38z"/>
		<path class="st1" d="M7.32,21.97c0,0-1.79,0.49-2.63-0.78c0,0,0.9,0.95,2.69,0.58c0,0-1.2-2.45-3.45-0.67
			C3.93,21.1,6.07,24.17,7.32,21.97z"/>
		<path class="st0" d="M21.27,12.98c0,0,2.73,0,2.12-2.8c0,0-3.7,0.57-2.28,2.66c0,0,0.35-1.82,1.86-2.02
			C22.98,10.83,21.73,11.22,21.27,12.98z"/>
		<path class="st2" d="M26.76,22.2c0,0,2.72,0.04,2.16-2.77c0,0-3.71,0.51-2.32,2.63c0,0,0.38-1.82,1.89-1.99
			C28.5,20.07,27.25,20.45,26.76,22.2z"/>
		<path class="st2" d="M22.66,21.33c0,0,2.72,0.04,2.16-2.77c0,0-3.71,0.51-2.32,2.63c0,0,0.38-1.82,1.9-1.99
			C24.39,19.2,23.14,19.58,22.66,21.33z"/>
		<path class="st2" d="M29.68,16.56c0,0,1.12-1.48,2.56-0.99c0,0-1.29-0.2-2.48,1.18c0,0,2.45,1.2,3.13-1.58
			C32.9,15.17,29.33,14.06,29.68,16.56z"/>
		<path class="st2" d="M28.24,16.94c0,0,1.53-2.26-1.13-3.32c0,0-1.6,3.38,0.93,3.38c0,0-1.31-1.31-0.63-2.68
			C27.41,14.32,27.04,15.57,28.24,16.94z"/>
		<path class="st2" d="M21.87,16.18c0,0,2.65-0.65,1.39-3.22c0,0-3.46,1.44-1.57,3.13c0,0-0.09-1.85,1.33-2.41
			C23.01,13.69,21.89,14.36,21.87,16.18z"/>
		<path class="st2" d="M25.16,13.84c0,0-1.15-1.45-0.32-2.73c0,0-0.51,1.2,0.53,2.7c0,0,1.77-2.07-0.75-3.43
			C24.62,10.37,22.65,13.55,25.16,13.84z"/>
		<path class="st0" d="M25.9,29.38c0,0,0.12,2.72,2.89,1.99c0,0-0.74-3.67-2.76-2.15c0,0,1.84,0.27,2.1,1.77
			C28.13,30.99,27.68,29.76,25.9,29.38z"/>
		<path class="st0" d="M24.75,28.14c0,0,2.59-0.86,1.12-3.33c0,0-3.33,1.71-1.32,3.25c0,0-0.24-1.84,1.13-2.51
			C25.68,25.56,24.62,26.33,24.75,28.14z"/>
		<path class="st0" d="M31.53,29.22c0,0-1.9-3.22-3.32-1.13c0,0,1.82-0.35,2.56,0.98c0,0-0.83-1.01-2.63-0.79
			C28.15,28.29,29.15,30.82,31.53,29.22z"/>
		<path class="st0" d="M27.46,27.38c0,0,1.82-0.89,0.5-2.57c0,0-2.28,1.6-0.65,2.53c0,0-0.36-1.33,0.58-1.96
			C27.89,25.38,27.19,26.06,27.46,27.38z"/>
		<path class="st0" d="M32.03,24.9c0,0,0.01,2.03,2.09,1.57c0,0-0.44-2.75-1.99-1.69c0,0,1.36,0.26,1.51,1.38
			C33.64,26.17,33.34,25.24,32.03,24.9z"/>
		<path class="st0" d="M31.18,20.71c0,0,1.18-0.72,2.05,0.01c0,0-0.84-0.49-2.04,0.14c0,0,1.37,1.5,2.6-0.24
			C33.79,20.62,31.62,18.87,31.18,20.71z"/>
		<path class="st0" d="M32.18,23.39c0,0,0.41-1.32,1.55-1.34c0,0-0.95,0.19-1.44,1.45c0,0,2.01,0.23,1.8-1.89
			C34.09,21.61,31.3,21.72,32.18,23.39z"/>
		<path class="st2" d="M30.42,19.86c0,0,1.51-1.35-0.22-2.6c0,0-1.77,2.15,0.06,2.61c0,0-0.71-1.19,0.03-2.05
			C30.3,17.82,29.8,18.66,30.42,19.86z"/>
		<path class="st2" d="M26.14,19.04c0,0,1.51-1.35-0.22-2.6c0,0-1.77,2.15,0.06,2.61c0,0-0.71-1.19,0.03-2.05
			C26.02,17,25.52,17.84,26.14,19.04z"/>
		<path class="st2" d="M32.36,13.41c0,0-0.97-0.06-1.76,1.04c0,0,1.89,0.73,2.22-1.38c0,0-2.72-0.6-2.3,1.24
			C30.52,14.31,31.25,13.14,32.36,13.41z"/>
		<path class="st2" d="M29.81,13.86c0,0,0.42-1.99-1.72-1.97c0,0-0.15,2.78,1.59,2.07c0,0-1.27-0.54-1.19-1.67
			C28.5,12.29,28.6,13.26,29.81,13.86z"/>
		<path class="st1" d="M12.98,10.31c0,0-1.38-0.06-1.69-1.15c0,0,0.43,0.87,1.78,1.02c0,0-0.3-2.01-2.3-1.25
			C10.77,8.93,11.6,11.59,12.98,10.31z"/>
		<path class="st2" d="M26.69,11.11c0,0-0.95-1-0.42-2c0,0-0.3,0.93,0.57,1.96c0,0,1.18-1.65-0.78-2.49
			C26.06,8.58,24.81,11.06,26.69,11.11z"/>
		<path class="st2" d="M29.58,10.09c0,0-0.97,0.08-1.59,1.29c0,0,1.98,0.44,1.99-1.69c0,0-2.78-0.18-2.09,1.57
			C27.9,11.26,28.45,9.99,29.58,10.09z"/>
		<path class="st0" d="M21.75,6.29c0,0,0.55-1.27,1.68-1.17c0,0-0.97,0.08-1.59,1.29c0,0,1.98,0.44,1.99-1.69
			C23.84,4.72,21.06,4.53,21.75,6.29z"/>
		<path class="st1" d="M17.32,8.87c0,0-1.82-0.9-2.34,1.17c0,0,2.66,0.84,2.4-1.03c0,0-0.84,1.1-1.91,0.73
			C15.48,9.74,16.44,9.89,17.32,8.87z"/>
		<path class="st1" d="M19.45,9.79c0,0-1.82-0.9-2.34,1.17c0,0,2.66,0.84,2.4-1.03c0,0-0.84,1.1-1.91,0.73
			C17.6,10.67,18.56,10.82,19.45,9.79z"/>
		<path class="st1" d="M16.4,13.75c0,0,2.03-0.11,1.46-2.17c0,0-2.73,0.57-1.59,2.07c0,0,0.19-1.37,1.31-1.58
			C17.59,12.08,16.67,12.42,16.4,13.75z"/>
		<path class="st1" d="M18.03,20.29c0,0,0.19-1.37,1.31-1.58c0,0-0.91,0.34-1.18,1.67c0,0,2.03-0.11,1.46-2.17
			C19.61,18.22,16.89,18.79,18.03,20.29z"/>
		<path class="st1" d="M11.28,18.6c0,0-1.38-0.09-1.66-1.19c0,0,0.41,0.88,1.75,1.06c0,0-0.25-2.01-2.27-1.3
			C9.1,17.16,9.87,19.84,11.28,18.6z"/>
		<path class="st1" d="M18.15,22.69c0,0,2.03-0.11,1.46-2.17c0,0-2.73,0.57-1.59,2.07c0,0,0.19-1.37,1.31-1.58
			C19.33,21.02,18.42,21.36,18.15,22.69z"/>
		<path class="st1" d="M18.37,24.86c0,0,2.03-0.11,1.46-2.17c0,0-2.73,0.57-1.59,2.07c0,0,0.19-1.37,1.31-1.58
			C19.55,23.19,18.64,23.53,18.37,24.86z"/>
		<path class="st1" d="M15.65,17.75c0,0-0.27-2.01-2.28-1.29c0,0,0.79,2.67,2.19,1.42c0,0-1.38-0.08-1.67-1.18
			C13.89,16.7,14.3,17.58,15.65,17.75z"/>
		<path class="st1" d="M13.81,21c0,0,2.03,0.06,1.63-2.04c0,0-2.77,0.35-1.75,1.94c0,0,0.3-1.35,1.43-1.47
			C15.13,19.43,14.19,19.7,13.81,21z"/>
		<path class="st1" d="M11.7,24.55c0,0,0.25-2.01-1.88-1.82c0,0,0.09,2.79,1.76,1.92c0,0-1.31-0.43-1.33-1.56
			C10.26,23.1,10.44,24.06,11.7,24.55z"/>
		<path class="st1" d="M6.72,29.1c0,0-1.88-0.78-2.25,1.32c0,0,2.71,0.66,2.32-1.19c0,0-0.76,1.15-1.86,0.86
			C4.93,30.1,5.9,30.18,6.72,29.1z"/>
		<path class="st1" d="M6.84,27.72c0,0-0.03-2.03-2.11-1.55c0,0,0.46,2.75,2.01,1.67c0,0-1.36-0.24-1.52-1.37
			C5.21,26.48,5.52,27.4,6.84,27.72z"/>
		<path class="st1" d="M11.7,28.15c0,0-1.41-1.46-2.6,0.31c0,0,2.22,1.69,2.61-0.15c0,0-1.16,0.75-2.05,0.04
			C9.66,28.35,10.51,28.82,11.7,28.15z"/>
		<path class="st1" d="M8.05,29.75c0,0-1.88,0.77-0.67,2.53c0,0,2.39-1.44,0.82-2.48c0,0,0.27,1.36-0.71,1.92
			C7.49,31.72,8.24,31.1,8.05,29.75z"/>
		<path class="st1" d="M6.67,19.93c0,0-1.32-0.43-1.33-1.56c0,0,0.18,0.96,1.44,1.45c0,0,0.25-2.01-1.88-1.82
			C4.9,18.01,4.99,20.8,6.67,19.93z"/>
		<path class="st1" d="M7.4,19.64c0,0-0.13-1.38,0.91-1.84c0,0-0.81,0.54-0.76,1.9c0,0,1.95-0.57,0.92-2.45
			C8.47,17.26,5.95,18.45,7.4,19.64z"/>
		<path class="st1" d="M15.47,21.18c0,0-2.77,0.35-1.75,1.94c0,0,0.3-1.35,1.43-1.47c0,0-0.94,0.27-1.31,1.57
			C13.84,23.22,15.87,23.28,15.47,21.18z"/>
		<path class="st1" d="M13.81,25.24c0,0,2.03,0.06,1.63-2.04c0,0-2.77,0.35-1.75,1.94c0,0,0.3-1.35,1.43-1.47
			C15.13,23.67,14.19,23.94,13.81,25.24z"/>
		<path class="st1" d="M20.06,5.54c0,0-1.17-0.74-0.89-1.84c0,0-0.07,0.97,1.03,1.77c0,0,0.74-1.89-1.36-2.23
			C18.83,3.23,18.22,5.95,20.06,5.54z"/>
		<path class="st1" d="M19.71,8.01c0,0-1.17-0.74-0.89-1.84c0,0-0.07,0.97,1.03,1.77c0,0,0.74-1.89-1.36-2.23
			C18.48,5.7,17.87,8.42,19.71,8.01z"/>
		<path class="st0" d="M24.02,2.5c0,0-0.97,0.08-1.59,1.29c0,0,1.98,0.44,1.99-1.69c0,0-2.78-0.18-2.09,1.57
			C22.34,3.67,22.89,2.4,24.02,2.5z"/>
		<path class="st1" d="M21.01,3.39c0,0-1.26-0.57-1.15-1.7c0,0,0.07,0.97,1.27,1.6c0,0,0.46-1.98-1.67-2.01
			C19.47,1.28,19.25,4.06,21.01,3.39z"/>
	</g>
	<path d="M27.94,38.73c-1.87-0.2,1.63-1.16,1.92-1.18c-2.16-0.04-2.57,1.23-4.73,0.87c-1.5-0.24-2.77-0.64-3.06-1.31
		c1.43-0.2,0.89,0.67,4.19,1.07c-3.06-0.91-1.99-0.91,0.24-1c4.6-0.07,8.71-0.33,11.18,1.27c-4.72-4.01-12-0.94-15.43-4.43
		c-1.38-2.3-0.46-4.59-0.46-4.59c4.31,0.69,6.92-2.84,6.92-2.84c-2.35,2.94-6.86,1.74-6.86,1.74c0.56-1.01,0.62-3.76,0.62-3.76
		c2.68-1.63,9.99-0.3,9.99-0.3C30.6,23.11,28,23.18,28,23.18c2.03-1.08,3.18-3.54,3.18-3.54c-2.59,3.56-8.69,3.82-8.69,3.82
		c6.73-4.05,7.97-10.62,7.97-10.62c-2.32,6.87-8.53,9.71-8.53,9.71c0.52-1.89-0.52-4.92-0.52-4.92c5.44-1.74,6.15-7.17,6.15-7.17
		c-2.98,6.27-6.22,6.07-6.22,6.07C19.18,11.73,22.19,2.1,22.19,2.1c-1.81,2.83-1.33,4.21-1.88,6.16c-0.64,2.26-5.54-4.09-5.54-4.09
		c1.85,5.24,5.05,5.25,5.04,5.49c-0.21,8.95,2.68,16.07-0.63,19.7c-0.99,1.08-1.81-9.94-1.81-9.94c1.45-4.71,0.8-7.16,0.8-7.16
		c0,2.82-1.43,5.06-1.43,5.06c0.2-4.69-4.21-8.82-4.21-8.82c6.58,9.91,2.31,19.74,2.31,19.74c-1.45-2.25-2.11-4.78-2.11-4.78
		c0.85-1.58,0.59-4.69,0.59-4.69c0.14,1.66-0.72,3.76-0.72,3.76c-0.87-1.3-0.72-4.99-0.72-4.99c-1.81,4.05,2.17,10.99,2.17,10.99
		c-5.07-2.68-7.02-9.03-7.02-9.03c1.68,8.49,6.65,9.39,6.65,9.39c-3.04,1.16-7.81-0.65-7.81-0.65c5.71,3.54,10.63,0.87,10.63,0.87
		c1.5,2.74,0.47,4.67-0.02,5.44c-0.04,0.07-0.12,0.1-0.18,0.15c-3.59,2.85-11.03,1.68-15.14,3.68c2.61-0.87,5-0.56,8.55-0.76
		c5.07-0.21,6.89-1.91,5.58-0.16c-1.51,1.71-5.78,0.09-8.26,1.04c4.55-0.56,6.05,0.98,8.46-0.48c0.09,0.16-1.05,1.04-1.43,1.31
		c-1.99,1.51-6.47-0.6-8.5,0.28c1.92-0.28,5.09,0.76,5.9,0.87c-1.95,0.28-3.49,1.15-3.73,2c0.81-1.08,3.13-1.71,3.73-1.6
		c0.73,0.16,0.13,2.47,0.33,3.66c0.74-4.66-0.45-3.35,2.03-4.66c1.18-0.6-0.69,2.04-0.45,3.31c-0.04-0.44,1.09-3.58,2.08-4.14
		c0.49-0.28,1.67-2.08,1.67-2.08c-0.2,2.91-3.01,3.99-1.83,6.93c-0.29-1.71,0.24-2.62,0.76-3.29c1.02-1.4,1.35-3.31,2.9-3.91
		c0.04-0.04,0.04,0.51,0.04,1.11c0,1.47-1.31,1.75-1.96,3.66c1.34-2.02,2.03-2.11,2.08-2c1.18,4.11,0.91,0.45-2.11,4.4
		c1.27-1.33,2.34-2.35,3.62-1.28c0.61,0.51,1.73,0.52,2.17,0.47c-1.83,0.08-2.41-1.35-2.86-2.83c-0.2-0.51,0.25-0.27,0.74-0.11
		c0.61,0.2,1.37,0.64,1.79,1.47c-0.42-1.87-2.81-1.83-2.85-2.82c0-0.36,0.33-0.61,0.71-0.81c0.87-0.44-0.1-1.28,0.24-1.41
		c0.64,1.2,1.15,1.86,2.39,3.07c0.69,0.67,0.74,2.74,0.52,3.58c0.53-0.91,0.17-2.95,0.29-2.82c1.96,1.67,3.59,2.22,4.64,2.31
		c-1.05-0.4-2.28-0.96-3.3-1.67c1.31,0.16,3.7-0.8,4.77-0.4c-1.8-1.35-4.81,1.74-7.16-2.24c1.38,0.56,2.97,0.71,4.67,0.84
		c3.5,0.2,2.16,0.2,3.75,1.87c-0.61-1.27-1.1-1.75-0.56-1.83c1.83-0.24,1.83,0.96,4.39,0.51c-1.51-0.16-1.76-0.09-3.54-0.96
		c0.29-0.51,3.13-0.75,4.02-0.71C31.96,37.51,31.15,39.02,27.94,38.73z"/>
</g>
<g>
	<text transform="matrix(1.09 0 0 1 36.8355 23.6494)" class="st3 st4">НАШИ КОРИЈЕНИ</text>
	<text transform="matrix(1 0 0 1 65.125 37.6417)" class="st5 st6">БАЊА ЛУКА</text>
</g>
</svg>
